# WaveFront *.obj file (generated by Autodesk ATF)
# Cube with chanfers


v 0.480000 0.480000 0.500000
v 0.500000 0.480000 0.480000
v 0.480000 0.500000 0.480000
v -0.480000 0.480000 0.500000
v -0.480000 0.500000 0.480000
v -0.500000 0.480000 0.480000
v 0.480000 0.500000 -0.480000
v 0.500000 0.480000 -0.480000
v 0.480000 0.480000 -0.500000
v 0.480000 -0.480000 0.500000
v 0.480000 -0.500000 0.480000
v 0.500000 -0.480000 0.480000
v -0.500000 0.480000 -0.480000
v -0.480000 0.500000 -0.480000
v -0.480000 0.480000 -0.500000
v -0.480000 -0.480000 0.500000
v -0.500000 -0.480000 0.480000
v -0.480000 -0.500000 0.480000
v 0.480000 -0.500000 -0.480000
v 0.480000 -0.480000 -0.500000
v 0.500000 -0.480000 -0.480000
v -0.480000 -0.500000 -0.480000
v -0.500000 -0.480000 -0.480000
v -0.480000 -0.480000 -0.500000
vt -0.001414 -0.002449 0.000000
vt 0.001414 -0.002449 0.000000
vt 0.000000 0.000000 0.000000
vt 0.002828 0.000000 0.000000
vt 0.001414 0.002449 0.000000
vt 0.000000 0.000000 0.000000
vt -0.001414 0.002449 0.000000
vt -0.002828 0.000000 0.000000
vt 0.000000 0.000000 0.000000
vt -0.002828 0.000000 0.000000
vt -0.001414 -0.002449 0.000000
vt 0.000000 0.000000 0.000000
vt 0.002828 -0.000000 0.000000
vt 0.001414 0.002449 0.000000
vt 0.000000 0.000000 0.000000
vt 0.073000 0.001414 0.000000
vt -0.023000 0.001414 0.000000
vt 0.073000 -0.001414 0.000000
vt -0.023000 -0.001414 0.000000
vt 0.001414 0.002449 0.000000
vt -0.001414 0.002449 0.000000
vt 0.000000 0.000000 0.000000
vt 0.001414 -0.002449 0.000000
vt 0.002828 0.000000 0.000000
vt 0.000000 0.000000 0.000000
vt 0.001414 0.073000 0.000000
vt -0.001414 0.073000 0.000000
vt 0.001414 -0.023000 0.000000
vt -0.001414 -0.023000 0.000000
vt -0.098000 -0.001414 0.000000
vt -0.002000 -0.001414 0.000000
vt -0.098000 0.001414 0.000000
vt -0.002000 0.001414 0.000000
vt 0.001414 -0.002449 0.000000
vt 0.002828 -0.000000 0.000000
vt 0.000000 -0.000000 0.000000
vt -0.001414 -0.073000 0.000000
vt 0.001414 -0.073000 0.000000
vt -0.001414 0.023000 0.000000
vt 0.001414 0.023000 0.000000
vt -0.073000 -0.001414 0.000000
vt 0.023000 -0.001414 0.000000
vt -0.073000 0.001414 0.000000
vt 0.023000 0.001414 0.000000
vt 0.098000 0.001414 0.000000
vt 0.002000 0.001414 0.000000
vt 0.098000 -0.001414 0.000000
vt 0.002000 -0.001414 0.000000
vt 0.073000 0.001414 0.000000
vt -0.023000 0.001414 0.000000
vt 0.073000 -0.001414 0.000000
vt -0.023000 -0.001414 0.000000
vt -0.001414 -0.073000 0.000000
vt 0.001414 -0.073000 0.000000
vt -0.001414 0.023000 0.000000
vt 0.001414 0.023000 0.000000
vt 0.098000 0.001414 0.000000
vt 0.002000 0.001414 0.000000
vt 0.098000 -0.001414 0.000000
vt 0.002000 -0.001414 0.000000
vt 0.001414 0.073000 0.000000
vt -0.001414 0.073000 0.000000
vt 0.001414 -0.023000 0.000000
vt -0.001414 -0.023000 0.000000
vt -0.098000 -0.001414 0.000000
vt -0.002000 -0.001414 0.000000
vt -0.098000 0.001414 0.000000
vt -0.002000 0.001414 0.000000
vt -0.073000 -0.001414 0.000000
vt 0.023000 -0.001414 0.000000
vt -0.073000 0.001414 0.000000
vt 0.023000 0.001414 0.000000
vt 0.002000 0.002000 0.000000
vt 0.098000 0.002000 0.000000
vt 0.002000 0.098000 0.000000
vt 0.098000 0.098000 0.000000
vt 0.048000 0.048000 0.000000
vt -0.048000 0.048000 0.000000
vt 0.048000 -0.048000 0.000000
vt -0.048000 -0.048000 0.000000
vt 0.002000 0.002000 0.000000
vt 0.098000 0.002000 0.000000
vt 0.002000 0.098000 0.000000
vt 0.098000 0.098000 0.000000
vt 0.098000 0.098000 0.000000
vt 0.002000 0.098000 0.000000
vt 0.098000 0.002000 0.000000
vt 0.002000 0.002000 0.000000
vt 0.002000 0.002000 0.000000
vt 0.098000 0.002000 0.000000
vt 0.002000 0.098000 0.000000
vt 0.098000 0.098000 0.000000
vt -0.048000 -0.048000 0.000000
vt 0.048000 -0.048000 0.000000
vt -0.048000 0.048000 0.000000
vt 0.048000 0.048000 0.000000
vn 0.057735 0.057735 0.057735
vn 0.057735 0.057735 0.057735
vn 0.057735 0.057735 0.057735
vn -0.057735 0.057735 0.057735
vn -0.057735 0.057735 0.057735
vn -0.057735 0.057735 0.057735
vn 0.057735 0.057735 -0.057735
vn 0.057735 0.057735 -0.057735
vn 0.057735 0.057735 -0.057735
vn 0.057735 -0.057735 0.057735
vn 0.057735 -0.057735 0.057735
vn 0.057735 -0.057735 0.057735
vn -0.057735 0.057735 -0.057735
vn -0.057735 0.057735 -0.057735
vn -0.057735 0.057735 -0.057735
vn 0.000000 0.070711 -0.070711
vn 0.000000 0.070711 -0.070711
vn 0.000000 0.070711 -0.070711
vn 0.000000 0.070711 -0.070711
vn -0.057735 -0.057735 0.057735
vn -0.057735 -0.057735 0.057735
vn -0.057735 -0.057735 0.057735
vn 0.057735 -0.057735 -0.057735
vn 0.057735 -0.057735 -0.057735
vn 0.057735 -0.057735 -0.057735
vn 0.070711 0.000000 -0.070711
vn 0.070711 0.000000 -0.070711
vn 0.070711 0.000000 -0.070711
vn 0.070711 0.000000 -0.070711
vn 0.070711 -0.070711 0.000000
vn 0.070711 -0.070711 0.000000
vn 0.070711 -0.070711 0.000000
vn 0.070711 -0.070711 0.000000
vn -0.057735 -0.057735 -0.057735
vn -0.057735 -0.057735 -0.057735
vn -0.057735 -0.057735 -0.057735
vn -0.070711 0.000000 -0.070711
vn -0.070711 0.000000 -0.070711
vn -0.070711 0.000000 -0.070711
vn -0.070711 0.000000 -0.070711
vn 0.000000 -0.070711 -0.070711
vn 0.000000 -0.070711 -0.070711
vn 0.000000 -0.070711 -0.070711
vn 0.000000 -0.070711 -0.070711
vn -0.070711 -0.070711 0.000000
vn -0.070711 -0.070711 0.000000
vn -0.070711 -0.070711 0.000000
vn -0.070711 -0.070711 0.000000
vn 0.000000 -0.070711 0.070711
vn 0.000000 -0.070711 0.070711
vn 0.000000 -0.070711 0.070711
vn 0.000000 -0.070711 0.070711
vn -0.070711 0.000000 0.070711
vn -0.070711 0.000000 0.070711
vn -0.070711 0.000000 0.070711
vn -0.070711 0.000000 0.070711
vn -0.070711 0.070711 0.000000
vn -0.070711 0.070711 0.000000
vn -0.070711 0.070711 0.000000
vn -0.070711 0.070711 0.000000
vn 0.070711 0.000000 0.070711
vn 0.070711 0.000000 0.070711
vn 0.070711 0.000000 0.070711
vn 0.070711 0.000000 0.070711
vn 0.070711 0.070711 0.000000
vn 0.070711 0.070711 0.000000
vn 0.070711 0.070711 0.000000
vn 0.070711 0.070711 0.000000
vn 0.000000 0.070711 0.070711
vn 0.000000 0.070711 0.070711
vn 0.000000 0.070711 0.070711
vn 0.000000 0.070711 0.070711
vn 0.000000 0.100000 0.000000
vn 0.000000 0.100000 0.000000
vn 0.000000 0.100000 0.000000
vn 0.000000 0.100000 0.000000
vn 0.000000 0.000000 -0.100000
vn 0.000000 0.000000 -0.100000
vn 0.000000 0.000000 -0.100000
vn 0.000000 0.000000 -0.100000
vn 0.100000 0.000000 0.000000
vn 0.100000 0.000000 0.000000
vn 0.100000 0.000000 0.000000
vn 0.100000 0.000000 0.000000
vn 0.000000 -0.100000 0.000000
vn 0.000000 -0.100000 0.000000
vn 0.000000 -0.100000 0.000000
vn 0.000000 -0.100000 0.000000
vn -0.100000 0.000000 0.000000
vn -0.100000 0.000000 0.000000
vn -0.100000 0.000000 0.000000
vn -0.100000 0.000000 0.000000
vn 0.000000 0.000000 0.100000
vn 0.000000 0.000000 0.100000
vn 0.000000 0.000000 0.100000
vn 0.000000 0.000000 0.100000

f 1/1/1 2/2/2 3/3/3
f 4/4/4 5/5/5 6/6/6
f 7/7/7 8/8/8 9/9/9
f 10/10/10 11/11/11 12/12/12
f 13/13/13 14/14/14 15/15/15
f 14/16/16 7/17/17 15/18/18
f 15/18/18 7/17/17 9/19/19
f 16/20/20 17/21/21 18/22/22
f 19/23/23 20/24/24 21/25/25
f 9/26/26 8/27/27 20/28/28
f 20/28/28 8/27/27 21/29/29
f 11/30/30 19/31/31 12/32/32
f 12/32/32 19/31/31 21/33/33
f 22/34/34 23/35/35 24/36/36
f 24/37/37 23/38/38 15/39/39
f 15/39/39 23/38/38 13/40/40
f 19/41/41 22/42/42 20/43/43
f 20/43/43 22/42/42 24/44/44
f 17/45/45 23/46/46 18/47/47
f 18/47/47 23/46/46 22/48/48
f 10/49/49 16/50/50 11/51/51
f 11/51/51 16/50/50 18/52/52
f 17/53/53 16/54/54 6/55/55
f 6/55/55 16/54/54 4/56/56
f 5/57/57 14/58/58 6/59/59
f 6/59/59 14/58/58 13/60/60
f 2/61/61 1/62/62 12/63/63
f 12/63/63 1/62/62 10/64/64
f 2/65/65 8/66/66 3/67/67
f 3/67/67 8/66/66 7/68/68
f 4/69/69 1/70/70 5/71/71
f 5/71/71 1/70/70 3/72/72
f 7/73/73 14/74/74 3/75/75
f 3/75/75 14/74/74 5/76/76
f 15/77/77 9/78/78 24/79/79
f 24/79/79 9/78/78 20/80/80
f 21/81/81 8/82/82 12/83/83
f 12/83/83 8/82/82 2/84/84
f 11/85/85 18/86/86 19/87/87
f 19/87/87 18/86/86 22/88/88
f 13/89/89 23/90/90 6/91/91
f 6/91/91 23/90/90 17/92/92
f 16/93/93 10/94/94 4/95/95
f 4/95/95 10/94/94 1/96/96
# 24 vertices
# 96 texture params
# 96 normals
# 44 facets

# 1 groups
